<svg xmlns="http://www.w3.org/2000/svg" xmlns:xlink="http://www.w3.org/1999/xlink" zoomAndPan="magnify" preserveAspectRatio="xMidYMid meet" version="1.0" viewBox="455.8 427.15 1968.4 2025.68"><defs><g/></defs><g fill="#ff5c00" fill-opacity="1"><g transform="translate(345.468886, 2452.831578)"><g><path d="M 1119.917969 -317.21875 C 1119.917969 -275.839844 1086.816406 -239.980469 1045.441406 -239.980469 L 598.578125 -239.980469 C 559.957031 -239.980469 529.617188 -275.839844 529.617188 -317.21875 L 529.617188 -935.101562 C 529.617188 -957.171875 521.339844 -981.996094 507.546875 -998.546875 L 361.351562 -1197.152344 C 355.835938 -1205.429688 350.320312 -1216.460938 350.320312 -1227.496094 L 350.320312 -1613.675781 C 350.320312 -1655.050781 386.179688 -1690.910156 427.554688 -1690.910156 L 1045.441406 -1690.910156 C 1086.816406 -1690.910156 1119.917969 -1655.050781 1119.917969 -1613.675781 L 1119.917969 -1508.855469 C 1119.917969 -1472.996094 1150.261719 -1445.410156 1183.359375 -1445.410156 L 1296.457031 -1445.410156 C 1332.316406 -1445.410156 1362.65625 -1472.996094 1362.65625 -1508.855469 L 1362.65625 -1613.675781 C 1362.65625 -1787.453125 1219.21875 -1930.890625 1045.441406 -1930.890625 L 427.554688 -1930.890625 C 253.773438 -1930.890625 110.335938 -1787.453125 110.335938 -1613.675781 L 110.335938 -317.21875 C 110.335938 -143.4375 253.773438 0 427.554688 0 L 1045.441406 0 C 1219.21875 0 1362.65625 -143.4375 1362.65625 -317.21875 L 1362.65625 -422.039062 C 1362.65625 -457.898438 1332.316406 -485.480469 1296.457031 -485.480469 L 1183.359375 -485.480469 C 1150.261719 -485.480469 1119.917969 -457.898438 1119.917969 -422.039062 Z M 1119.917969 -317.21875 "/></g></g></g><g fill="#ff5c00" fill-opacity="1"><g transform="translate(2534.527403, 427.161661)"><g><path d="M -1119.917969 317.21875 C -1119.917969 275.839844 -1086.816406 239.980469 -1045.441406 239.980469 L -598.578125 239.980469 C -559.957031 239.980469 -529.617188 275.839844 -529.617188 317.21875 L -529.617188 935.101562 C -529.617188 957.171875 -521.339844 981.996094 -507.546875 998.546875 L -361.351562 1197.152344 C -355.835938 1205.429688 -350.320312 1216.460938 -350.320312 1227.496094 L -350.320312 1613.675781 C -350.320312 1655.050781 -386.179688 1690.910156 -427.554688 1690.910156 L -1045.441406 1690.910156 C -1086.816406 1690.910156 -1119.917969 1655.050781 -1119.917969 1613.675781 L -1119.917969 1508.855469 C -1119.917969 1472.996094 -1150.261719 1445.410156 -1183.359375 1445.410156 L -1296.457031 1445.410156 C -1332.316406 1445.410156 -1362.65625 1472.996094 -1362.65625 1508.855469 L -1362.65625 1613.675781 C -1362.65625 1787.453125 -1219.21875 1930.890625 -1045.441406 1930.890625 L -427.554688 1930.890625 C -253.773438 1930.890625 -110.335938 1787.453125 -110.335938 1613.675781 L -110.335938 317.21875 C -110.335938 143.4375 -253.773438 0 -427.554688 0 L -1045.441406 0 C -1219.21875 0 -1362.65625 143.4375 -1362.65625 317.21875 L -1362.65625 422.039062 C -1362.65625 457.898438 -1332.316406 485.480469 -1296.457031 485.480469 L -1183.359375 485.480469 C -1150.261719 485.480469 -1119.917969 457.898438 -1119.917969 422.039062 Z M -1119.917969 317.21875 "/></g></g></g></svg>