<svg xmlns="http://www.w3.org/2000/svg" xmlns:xlink="http://www.w3.org/1999/xlink" zoomAndPan="magnify" preserveAspectRatio="xMidYMid meet" version="1.0" viewBox="60.63 1187.53 2761.57 388.88"><defs><g/></defs><g fill="#ff5c00" fill-opacity="1"><g transform="translate(38.557325, 1574.734704)"><g><path d="M 224.253906 -63.519531 C 224.253906 -55.234375 217.628906 -48.054688 209.34375 -48.054688 L 119.859375 -48.054688 C 112.128906 -48.054688 106.050781 -55.234375 106.050781 -63.519531 L 106.050781 -187.246094 C 106.050781 -191.667969 104.394531 -196.636719 101.632812 -199.953125 L 72.359375 -239.722656 C 71.253906 -241.378906 70.148438 -243.589844 70.148438 -245.796875 L 70.148438 -323.128906 C 70.148438 -331.414062 77.328125 -338.59375 85.613281 -338.59375 L 209.34375 -338.59375 C 217.628906 -338.59375 224.253906 -331.414062 224.253906 -323.128906 L 224.253906 -302.136719 C 224.253906 -294.957031 230.332031 -289.433594 236.960938 -289.433594 L 259.605469 -289.433594 C 266.785156 -289.433594 272.863281 -294.957031 272.863281 -302.136719 L 272.863281 -323.128906 C 272.863281 -357.925781 244.140625 -386.648438 209.34375 -386.648438 L 85.613281 -386.648438 C 50.816406 -386.648438 22.09375 -357.925781 22.09375 -323.128906 L 22.09375 -63.519531 C 22.09375 -28.722656 50.816406 0 85.613281 0 L 209.34375 0 C 244.140625 0 272.863281 -28.722656 272.863281 -63.519531 L 272.863281 -84.511719 C 272.863281 -91.691406 266.785156 -97.214844 259.605469 -97.214844 L 236.960938 -97.214844 C 230.332031 -97.214844 224.253906 -91.691406 224.253906 -84.511719 Z M 224.253906 -63.519531 "/></g></g></g><g fill="#ff5c00" fill-opacity="1"><g transform="translate(330.72522, 1574.734704)"><g><path d="M 66.28125 -230.882812 C 66.28125 -239.167969 72.910156 -245.796875 81.195312 -245.796875 L 182.828125 -245.796875 C 191.113281 -245.796875 198.296875 -239.167969 198.296875 -230.882812 L 198.296875 -214.867188 C 198.296875 -207.683594 203.820312 -202.160156 211 -202.160156 L 229.777344 -202.160156 C 236.40625 -202.160156 242.484375 -207.683594 242.484375 -214.867188 L 242.484375 -227.015625 C 242.484375 -261.816406 213.761719 -289.984375 178.960938 -289.984375 L 35.351562 -289.984375 C 28.171875 -289.984375 22.09375 -284.460938 22.09375 -277.28125 L 22.09375 -12.703125 C 22.09375 -5.523438 28.171875 0 35.351562 0 L 76.226562 0 C 83.40625 0 88.929688 -5.523438 88.929688 -12.703125 L 88.929688 -169.574219 C 88.929688 -173.992188 87.273438 -178.960938 84.511719 -182.828125 L 67.941406 -204.921875 C 66.835938 -206.582031 66.28125 -208.789062 66.28125 -211 Z M 66.28125 -230.882812 "/></g></g></g><g fill="#ff5c00" fill-opacity="1"><g transform="translate(589.754958, 1574.734704)"><g><path d="M 19.332031 -63.519531 C 19.332031 -28.722656 48.054688 0 82.851562 0 L 181.722656 0 C 216.523438 0 245.246094 -28.722656 245.246094 -63.519531 L 245.246094 -227.015625 C 245.246094 -261.816406 216.523438 -289.984375 181.722656 -289.984375 L 82.851562 -289.984375 C 48.054688 -289.984375 19.332031 -261.816406 19.332031 -227.015625 Z M 86.167969 -59.652344 L 86.167969 -169.574219 C 86.167969 -174.542969 84.511719 -179.515625 81.75 -182.828125 L 65.179688 -204.921875 C 63.519531 -207.132812 63.519531 -209.34375 63.519531 -211 L 63.519531 -230.882812 C 63.519531 -239.167969 70.148438 -245.796875 78.433594 -245.796875 L 185.589844 -245.796875 C 193.875 -245.796875 201.058594 -239.167969 201.058594 -230.882812 L 201.058594 -59.652344 C 201.058594 -51.367188 193.875 -44.1875 185.589844 -44.1875 L 101.082031 -44.1875 C 92.796875 -44.1875 86.167969 -51.367188 86.167969 -59.652344 Z M 86.167969 -59.652344 "/></g></g></g><g fill="#ff5c00" fill-opacity="1"><g transform="translate(854.307706, 1574.734704)"><g><path d="M 91.136719 -82.851562 C 88.375 -85.613281 86.167969 -90.035156 86.167969 -94.453125 L 86.167969 -169.574219 C 86.167969 -174.542969 84.511719 -178.960938 81.75 -182.828125 L 65.179688 -204.921875 C 64.074219 -206.582031 63.519531 -209.34375 63.519531 -211 L 63.519531 -277.28125 C 63.519531 -284.460938 57.445312 -289.984375 50.816406 -289.984375 L 32.035156 -289.984375 C 24.855469 -289.984375 19.332031 -284.460938 19.332031 -277.28125 L 19.332031 -95.003906 C 19.332031 -83.40625 24.304688 -71.253906 32.589844 -62.96875 L 86.71875 -8.835938 C 93.898438 -1.65625 103.84375 1.65625 112.679688 1.65625 C 121.519531 1.65625 131.460938 -1.65625 138.640625 -8.835938 L 178.410156 -48.605469 C 182.277344 -52.472656 185.589844 -52.472656 189.457031 -48.605469 L 229.226562 -8.835938 C 236.40625 -1.65625 246.351562 1.65625 255.1875 1.65625 C 264.023438 1.65625 273.96875 -1.65625 281.148438 -8.835938 L 335.277344 -62.96875 C 343.5625 -71.253906 348.535156 -83.40625 348.535156 -95.003906 L 348.535156 -277.28125 C 348.535156 -284.460938 343.011719 -289.984375 335.832031 -289.984375 L 317.050781 -289.984375 C 310.421875 -289.984375 304.347656 -284.460938 304.347656 -277.28125 L 304.347656 -102.738281 C 304.347656 -96.660156 302.691406 -90.035156 298.824219 -86.167969 L 267.890625 -55.234375 C 264.578125 -51.921875 260.160156 -50.816406 255.1875 -50.816406 C 250.214844 -50.816406 245.796875 -51.921875 242.484375 -55.234375 L 211.550781 -86.167969 C 207.683594 -90.035156 206.027344 -96.660156 206.027344 -102.738281 L 206.027344 -277.28125 C 206.027344 -284.460938 199.953125 -289.984375 193.324219 -289.984375 L 174.542969 -289.984375 C 167.914062 -289.984375 161.839844 -284.460938 161.839844 -277.28125 L 161.839844 -102.738281 C 161.839844 -96.660156 160.183594 -90.035156 156.316406 -86.167969 L 133.667969 -65.179688 C 130.355469 -61.863281 125.9375 -60.207031 120.964844 -60.207031 C 115.996094 -60.207031 111.574219 -61.863281 108.261719 -65.179688 Z M 91.136719 -82.851562 "/></g></g></g><g fill="#ff5c00" fill-opacity="1"><g transform="translate(1222.140978, 1574.734704)"><g><path d="M 186.144531 -245.796875 C 194.429688 -245.796875 201.058594 -238.617188 201.058594 -230.332031 L 201.058594 -211 C 201.058594 -209.34375 200.503906 -206.582031 199.398438 -204.921875 L 182.828125 -182.828125 C 180.066406 -178.960938 178.410156 -174.542969 178.410156 -169.574219 L 178.410156 -59.652344 C 178.410156 -51.367188 171.78125 -44.1875 163.496094 -44.1875 L 78.988281 -44.1875 C 70.703125 -44.1875 63.519531 -51.367188 63.519531 -59.652344 L 63.519531 -230.882812 C 63.519531 -239.167969 70.703125 -245.796875 78.988281 -245.796875 Z M 245.246094 -373.945312 C 245.246094 -380.570312 239.722656 -386.648438 232.539062 -386.648438 L 213.761719 -386.648438 C 207.132812 -386.648438 201.058594 -380.570312 201.058594 -373.945312 L 201.058594 -304.347656 C 201.058594 -296.613281 193.875 -289.984375 186.144531 -289.984375 L 82.300781 -289.984375 C 47.503906 -289.984375 19.332031 -261.816406 19.332031 -227.015625 L 19.332031 -62.96875 C 19.332031 -28.171875 47.503906 0 82.300781 0 C 181.722656 0 232.539062 0 232.539062 0 C 239.722656 0 245.246094 -5.523438 245.246094 -12.703125 Z M 245.246094 -373.945312 "/></g></g></g><g fill="#ff5c00" fill-opacity="1"><g transform="translate(1486.693726, 1574.734704)"><g><path d="M 224.253906 -63.519531 C 224.253906 -55.234375 217.628906 -48.054688 209.34375 -48.054688 L 119.859375 -48.054688 C 112.128906 -48.054688 106.050781 -55.234375 106.050781 -63.519531 L 106.050781 -187.246094 C 106.050781 -191.667969 104.394531 -196.636719 101.632812 -199.953125 L 72.359375 -239.722656 C 71.253906 -241.378906 70.148438 -243.589844 70.148438 -245.796875 L 70.148438 -323.128906 C 70.148438 -331.414062 77.328125 -338.59375 85.613281 -338.59375 L 209.34375 -338.59375 C 217.628906 -338.59375 224.253906 -331.414062 224.253906 -323.128906 L 224.253906 -302.136719 C 224.253906 -294.957031 230.332031 -289.433594 236.960938 -289.433594 L 259.605469 -289.433594 C 266.785156 -289.433594 272.863281 -294.957031 272.863281 -302.136719 L 272.863281 -323.128906 C 272.863281 -357.925781 244.140625 -386.648438 209.34375 -386.648438 L 85.613281 -386.648438 C 50.816406 -386.648438 22.09375 -357.925781 22.09375 -323.128906 L 22.09375 -63.519531 C 22.09375 -28.722656 50.816406 0 85.613281 0 L 209.34375 0 C 244.140625 0 272.863281 -28.722656 272.863281 -63.519531 L 272.863281 -84.511719 C 272.863281 -91.691406 266.785156 -97.214844 259.605469 -97.214844 L 236.960938 -97.214844 C 230.332031 -97.214844 224.253906 -91.691406 224.253906 -84.511719 Z M 224.253906 -63.519531 "/></g></g></g><g fill="#ff5c00" fill-opacity="1"><g transform="translate(1778.861622, 1574.734704)"><g><path d="M 66.28125 -230.882812 C 66.28125 -239.167969 72.910156 -245.796875 81.195312 -245.796875 L 182.828125 -245.796875 C 191.113281 -245.796875 198.296875 -239.167969 198.296875 -230.882812 L 198.296875 -214.867188 C 198.296875 -207.683594 203.820312 -202.160156 211 -202.160156 L 229.777344 -202.160156 C 236.40625 -202.160156 242.484375 -207.683594 242.484375 -214.867188 L 242.484375 -227.015625 C 242.484375 -261.816406 213.761719 -289.984375 178.960938 -289.984375 L 35.351562 -289.984375 C 28.171875 -289.984375 22.09375 -284.460938 22.09375 -277.28125 L 22.09375 -12.703125 C 22.09375 -5.523438 28.171875 0 35.351562 0 L 76.226562 0 C 83.40625 0 88.929688 -5.523438 88.929688 -12.703125 L 88.929688 -169.574219 C 88.929688 -173.992188 87.273438 -178.960938 84.511719 -182.828125 L 67.941406 -204.921875 C 66.835938 -206.582031 66.28125 -208.789062 66.28125 -211 Z M 66.28125 -230.882812 "/></g></g></g><g fill="#ff5c00" fill-opacity="1"><g transform="translate(2037.891271, 1574.734704)"><g><path d="M 19.332031 -62.96875 C 19.332031 -28.171875 47.503906 0 82.300781 0 L 232.539062 0 C 239.722656 0 245.246094 -5.523438 245.246094 -12.703125 L 245.246094 -227.015625 C 245.246094 -261.816406 217.074219 -289.984375 182.277344 -289.984375 L 82.300781 -289.984375 C 47.503906 -289.984375 19.332031 -261.816406 19.332031 -227.015625 L 19.332031 -214.867188 C 19.332031 -207.683594 24.855469 -202.160156 32.035156 -202.160156 L 50.816406 -202.160156 C 57.996094 -202.160156 63.519531 -207.683594 63.519531 -214.867188 L 63.519531 -230.882812 C 63.519531 -239.167969 70.703125 -245.796875 78.988281 -245.796875 L 186.144531 -245.796875 C 194.429688 -245.796875 201.058594 -239.167969 201.058594 -230.882812 L 201.058594 -202.714844 C 201.058594 -194.429688 194.429688 -187.246094 186.144531 -187.246094 L 84.511719 -187.246094 C 49.710938 -187.246094 19.332031 -159.078125 19.332031 -124.28125 Z M 178.410156 -59.652344 C 178.410156 -51.367188 171.78125 -44.1875 163.496094 -44.1875 L 78.988281 -44.1875 C 70.703125 -44.1875 63.519531 -51.367188 63.519531 -59.652344 L 63.519531 -128.144531 C 63.519531 -135.878906 70.148438 -143.058594 77.882812 -143.058594 L 163.496094 -143.058594 C 171.78125 -143.058594 178.410156 -136.429688 178.410156 -128.144531 Z M 178.410156 -59.652344 "/></g></g></g><g fill="#ff5c00" fill-opacity="1"><g transform="translate(2302.444113, 1574.734704)"><g><path d="M 212.105469 -201.609375 C 219.285156 -201.609375 224.253906 -207.683594 224.253906 -214.3125 L 224.253906 -233.09375 C 224.253906 -240.273438 218.730469 -245.796875 211.550781 -245.796875 L 107.15625 -245.796875 C 99.976562 -245.796875 92.242188 -251.320312 92.242188 -259.054688 L 92.242188 -326.992188 C 92.242188 -335.277344 99.421875 -342.460938 107.15625 -342.460938 L 209.34375 -342.460938 C 217.628906 -342.460938 224.253906 -335.277344 224.253906 -326.992188 L 224.253906 -317.050781 C 224.253906 -309.871094 230.332031 -303.792969 236.960938 -303.792969 L 256.292969 -303.792969 C 262.921875 -303.792969 268.996094 -309.871094 268.996094 -317.050781 L 268.996094 -324.230469 C 268.996094 -359.03125 240.273438 -387.199219 205.476562 -387.199219 L 111.574219 -387.199219 C 76.777344 -387.199219 48.054688 -359.03125 48.054688 -324.230469 L 48.054688 -260.160156 C 48.054688 -252.425781 40.875 -245.796875 33.140625 -245.796875 L 18.78125 -245.796875 C 11.597656 -245.796875 5.523438 -240.273438 5.523438 -233.09375 L 5.523438 -214.3125 C 5.523438 -207.683594 11.597656 -201.609375 18.78125 -201.609375 L 33.140625 -201.609375 C 41.425781 -201.609375 48.054688 -194.980469 48.054688 -187.246094 L 48.054688 -12.703125 C 48.054688 -5.523438 53.578125 0 60.757812 0 L 102.183594 0 C 109.367188 0 114.890625 -5.523438 114.890625 -12.703125 L 114.890625 -162.945312 C 114.890625 -167.914062 113.234375 -172.335938 110.472656 -176.199219 L 96.660156 -194.429688 C 93.898438 -198.296875 96.109375 -201.609375 100.527344 -201.609375 Z M 212.105469 -201.609375 "/></g></g></g><g fill="#ff5c00" fill-opacity="1"><g transform="translate(2576.93834, 1574.734704)"><g><path d="M 131.460938 -44.1875 C 123.175781 -44.1875 116.546875 -51.367188 116.546875 -59.652344 L 116.546875 -169.574219 C 116.546875 -174.542969 114.890625 -179.515625 112.128906 -182.828125 L 95.558594 -204.921875 C 93.898438 -207.132812 93.898438 -209.34375 93.898438 -211 L 93.898438 -230.882812 C 93.898438 -239.167969 100.527344 -245.796875 108.8125 -245.796875 L 232.539062 -245.796875 C 239.722656 -245.796875 245.246094 -251.875 245.246094 -258.5 L 245.246094 -277.28125 C 245.246094 -284.460938 239.722656 -289.984375 232.539062 -289.984375 L 108.8125 -289.984375 C 101.082031 -289.984375 93.898438 -296.0625 93.898438 -303.242188 L 93.898438 -351.847656 C 93.898438 -358.476562 88.375 -364.554688 81.195312 -364.554688 L 62.414062 -364.554688 C 55.234375 -364.554688 49.710938 -358.476562 49.710938 -351.847656 L 49.710938 -304.347656 C 49.710938 -296.613281 42.53125 -289.984375 34.796875 -289.984375 L 20.988281 -289.984375 C 13.808594 -289.984375 8.285156 -284.460938 8.285156 -277.28125 L 8.285156 -258.5 C 8.285156 -251.875 13.808594 -245.796875 20.988281 -245.796875 L 34.796875 -245.796875 C 42.53125 -245.796875 49.710938 -239.167969 49.710938 -231.4375 L 49.710938 -63.519531 C 49.710938 -28.722656 77.882812 0 112.679688 0 L 181.722656 0 C 216.523438 0 245.246094 -28.171875 245.246094 -62.96875 L 245.246094 -69.597656 C 245.246094 -76.777344 239.167969 -82.300781 232.539062 -82.300781 L 213.761719 -82.300781 C 207.132812 -82.300781 201.058594 -76.777344 201.058594 -69.597656 L 201.058594 -59.652344 C 201.058594 -51.367188 194.429688 -44.1875 186.144531 -44.1875 Z M 131.460938 -44.1875 "/></g></g></g></svg>